<?xml version="1.0" encoding="utf-8"?>
<!-- Generator: Adobe Illustrator 21.1.0, SVG Export Plug-In . SVG Version: 6.00 Build 0)  -->
<svg version="1.1" id="Level_A" xmlns="http://www.w3.org/2000/svg" xmlns:xlink="http://www.w3.org/1999/xlink" x="0px" y="0px"
	 viewBox="0 0 1260.4 925" style="enable-background:new 0 0 1260.4 925;" xml:space="preserve">
<style type="text/css">
	.st0{fill:#050000;}
	.st1{fill:#7F7F7F;}
	.st2{fill:#C4C4C4;}
	.st3{fill:#231F20;}
	.st4{fill:none;stroke:#231F20;stroke-width:10;stroke-miterlimit:10;}
</style>
<g id="nopointer-stuff">
	<g id="offices">
		<rect id="board-room-desk" x="194.2" y="582.7" class="st0" width="32" height="86.8"/>
		<polygon id="pr2" class="st1" points="325.4,719.7 329.1,743.9 359.9,739.1 352.8,717.3 		"/>
		<polygon id="pr1" class="st1" points="329.9,748.6 334.6,777.9 370.5,772.4 361.7,743.9 		"/>
		<polygon id="x22" class="st2" points="339.7,193.3 339.7,338.5 392.9,338.5 392.9,190.5 339.7,190.5 		"/>
		<polygon id="x21" class="st2" points="262.9,203.3 262.9,319.4 289.9,319.4 289.9,201 262.9,201 		"/>
		<rect id="x20" x="652.1" y="90.3" class="st1" width="53.3" height="76.2"/>
		<polygon id="x19" class="st2" points="80.4,508 156.9,508 156.9,564 77.4,564 77.4,508 		"/>
		<polygon id="x18" class="st1" points="231.4,362.5 231.4,480.5 315.9,480.5 298.4,362.5 		"/>
		<polygon id="x17" class="st2" points="179.9,508 184.9,542 253.9,542 253.9,508 		"/>
		<polygon id="x16" class="st2" points="257.9,575.3 257.9,633 337.4,633 327.9,575.3 		"/>
		<polygon id="x15" class="st2" points="257.9,636.5 255.9,684.5 345.9,692.8 338,636.5 		"/>
		<rect id="x14" x="392.9" y="362.5" class="st1" width="58" height="77.5"/>
		<rect id="x13" x="454.2" y="362.5" class="st2" width="47.3" height="77.5"/>
		<rect id="x12" x="504.7" y="362.5" class="st2" width="47.3" height="77.5"/>
		<rect id="x11" x="721.4" y="362.5" class="st2" width="55" height="77.5"/>
		<rect id="x10" x="779.9" y="362.5" class="st2" width="33.5" height="77.5"/>
		<rect id="x9" x="676.9" y="362.5" class="st1" width="41.2" height="23.2"/>
		<rect id="x8" x="676.9" y="389.6" class="st1" width="41.2" height="23.2"/>
		<rect id="x7" x="676.9" y="416.8" class="st1" width="41.2" height="23.2"/>
		<rect id="x6" x="605.3" y="397" class="st2" width="43.6" height="43"/>
		<polygon id="x5" class="st2" points="816.9,362.5 892.4,362.5 897.6,374.9 816.9,412 		"/>
		<polygon id="x4" class="st2" points="830.9,436.5 876.4,544.2 956.9,511.5 899.4,378.5 816.9,416.5 816.9,440 		"/>
		<polygon id="x3" class="st2" points="401.4,193.3 401.4,338.5 648.9,338.5 648.9,190.5 401.4,190.5 		"/>
		<polygon id="x2" class="st2" points="674.4,193.3 674.4,338.5 882.9,338.5 882.9,190.5 674.4,190.5 		"/>
		<polygon id="x1" class="st2" points="933.4,193.3 933.4,338.5 1095.8,338.5 1095.8,190.5 933.4,190.5 		"/>
	</g>
	<path id="waves" class="st3" d="M899.8,851.3c-11.1,11.1-31.8-0.7-32-0.8l-3.3-1.9l-2.7,2.7c-13,13-30.4,0.1-31.1-0.4l-3.3-2.5
		l-3.1,2.7c-15.7,13.8-29.9,1.6-31.6,0.1l0,0l0,0l0,0l-0.2,0.2l-0.1-0.1c-11.1,11.1-31.8-0.7-32-0.8l-3.3-1.9l-2.7,2.7
		c-13,13-30.4,0.1-31.1-0.4l-3.3-2.5l-3.1,2.7c-15.7,13.8-29.9,1.6-31.6,0.1l0,0l0,0l0,0l-0.3,0.3l-0.2-0.2
		c-11.1,11.1-31.7-0.7-31.9-0.8l-3.3-1.9l-2.7,2.7c-13,13-30.4,0.1-31.1-0.4l-3.3-2.5l-3.1,2.7c-15.7,13.8-30,1.5-31.6,0.1l-1.5,1.6
		c-11.4,8.5-30.1-2.1-30.3-2.2l-3.3-1.9l-2.7,2.7c-13,13-30.4,0.1-31.1-0.4l-3.3-2.5l-3.1,2.7c-15.7,13.8-29.9,1.6-31.6,0.1l0,0l0,0
		l0,0l-2.9,3.2l-3.9,4.2c4.5,4.2,13,9,22.9,9c6,0,12.5-1.8,19-6.5c9.1,5.5,25,10.3,38.2-0.2c2.7,1.3,7,3,11.9,4.1
		c8.4,1.9,15.8,1.3,21.9-1.6c4.4,2.3,9.9,4.1,15.9,4.1s12.5-1.8,19-6.5c9.1,5.5,25,10.3,38.2-0.2c2.7,1.3,7,3,11.9,4.1
		c8.5,1.9,15.9,1.3,22.1-1.7c4.5,2.5,10.1,4.4,16.4,4.4c6,0,12.5-1.8,19-6.5c9.1,5.5,25,10.3,38.2-0.2c2.7,1.3,7,3,11.9,4.1
		c8.4,1.9,15.9,1.3,22-1.7c4.4,2.4,10,4.3,16.2,4.3c6,0,12.5-1.8,19-6.5c9.1,5.5,25,10.3,38.2-0.2c2.7,1.3,7,3,11.9,4.1
		c11.9,2.7,21.9,0.4,28.9-6.6L899.8,851.3z"/>
	<path id="border" class="st4" d="M77.4,52v738.7h163.3c0,0,210.7-7.3,386.7-82.7l572.7-243.3V52H77.4z"/>
</g>
<g id="landmarks-desks">
	<polygon id="d21" class="st2" points="964.9,362.5 1020.4,484.5 1096.7,471.5 1096.7,362.5 	"/>
	<path id="d20" class="st0" d="M527.1,637.5h20.5c0,0,1,20,22,21.8c0,0,17.6,0.6,22.2-21.8H612c0,0-0.5,14.2,11.2,18.5l-10,18
		c0,0-8.8-7.5-23.2,0c0,0-10,6-10.2,18.7h-20.5c0,0,0.5-23.2-22-22.8s-21.2,22.8-21.2,22.8h-20.8c0,0-1-14-10.8-18.7l9.5-18
		c0,0,11.2,8.2,22.5,0.5C516.6,656.5,528.1,649.2,527.1,637.5z"/>
	<path id="d12" class="st0" d="M416.2,482.8H396c0,0,0.2,15.2-11.5,19.2l10.2,17.7c0,0,11.2-8.8,22.8-1.2c0,0,12.5,6.8,10.5,24.8
		c0,0-1,10.2-10.8,14.2l11,17.8c0,0,11.2-9.9,21,0l10.5-17.8c0,0-10.2-3.8-10.8-14.8c0,0-1.8-16.2,10.8-23.8c0,0,11-7,21.5-0.2
		l10.8-17c0,0-11.2-4.2-11.2-19h-20.2c0,0,1.8,13.2-11,19c0,0-12.5,6.2-22.2,0C427.2,501.8,417,496.3,416.2,482.8z"/>
	<path id="d13" class="st0" d="M551.2,482.8H531c0,0,0.2,15.2-11.5,19.2l10.2,17.7c0,0,11.2-8.8,22.8-1.2c0,0,12.5,6.8,10.5,24.8
		c0,0-1,10.2-10.8,14.2l11,17.8c0,0,11.2-9.9,21,0l10.5-17.8c0,0-10.2-3.8-10.8-14.8c0,0-1.8-16.2,10.8-23.8c0,0,11-7,21.5-0.2
		l10.8-17c0,0-11.2-4.2-11.2-19h-20.2c0,0,1.8,13.2-11,19c0,0-12.5,6.2-22.2,0C562.2,501.8,551.9,496.3,551.2,482.8z"/>
	<path id="d14" class="st0" d="M686.1,482.8h-20.2c0,0,0.2,15.2-11.5,19.2l10.2,17.7c0,0,11.2-8.8,22.8-1.2c0,0,12.5,6.8,10.5,24.8
		c0,0-1,10.2-10.8,14.2l11,17.8c0,0,11.2-9.9,21,0l10.5-17.8c0,0-10.2-3.8-10.8-14.8c0,0-1.8-16.2,10.8-23.8c0,0,11-7,21.5-0.2
		l10.8-17c0,0-11.2-4.2-11.2-19h-20.2c0,0,1.8,13.2-11,19c0,0-12.5,6.2-22.2,0C697.1,501.8,686.8,496.3,686.1,482.8z"/>
	<path id="d16" class="st0" d="M527.7,624.1h20.2c0,0-0.2-15.2,11.5-19.2l-10.2-17.8c0,0-11.2,8.8-22.8,1.2c0,0-12.5-6.8-10.5-24.8
		c0,0,1-10.2,10.8-14.2l-11-17.8c0,0-11.2,9.9-21,0l-10.5,17.8c0,0,10.2,3.8,10.8,14.8c0,0,1.8,16.2-10.8,23.8c0,0-11,7-21.5,0.2
		l-10.8,17c0,0,11.2,4.2,11.2,19h20.2c0,0-1.8-13.2,11-19c0,0,12.5-6.2,22.3,0C516.7,605.1,526.9,610.6,527.7,624.1z"/>
	<path id="d17" class="st0" d="M662.7,624.1H683c0,0-0.2-15.2,11.5-19.2l-10.2-17.8c0,0-11.2,8.8-22.8,1.2c0,0-12.5-6.8-10.5-24.8
		c0,0,1-10.2,10.8-14.2l-11-17.8c0,0-11.2,9.9-21,0l-10.5,17.8c0,0,10.2,3.8,10.8,14.8c0,0,1.8,16.2-10.8,23.8c0,0-11,7-21.5,0.2
		l-10.8,17c0,0,11.2,4.2,11.2,19h20.2c0,0-1.8-13.2,11-19c0,0,12.5-6.2,22.2,0C651.7,605.1,662,610.6,662.7,624.1z"/>
	<path id="d18" class="st0" d="M812.7,590.4H833c0,0-0.2-15.2,11.5-19.2l-10.2-17.8c0,0-11.2,8.8-22.8,1.2c0,0-12.5-6.8-10.5-24.8
		c0,0,1-10.2,10.8-14.2l-11-17.8c0,0-11.2,9.9-21,0l-10.5,17.8c0,0,10.2,3.8,10.8,14.8c0,0,1.8,16.2-10.8,23.8c0,0-11,7-21.5,0.2
		l-10.8,17c0,0,11.2,4.2,11.2,19h20.2c0,0-1.8-13.2,11-19c0,0,12.5-6.2,22.2,0C801.7,571.4,812,576.9,812.7,590.4z"/>
	<path id="d5" class="st0" d="M812.4,72.5h-20.2c0,0,0.2,15.2-11.5,19.2l10.2,17.8c0,0,11.2-8.8,22.8-1.2c0,0,12.5,6.8,10.5,24.8
		c0,0-1,10.2-10.8,14.2l11,17.8c0,0,11.2-9.9,21,0l10.5-17.8c0,0-10.2-3.8-10.8-14.8c0,0-1.8-16.2,10.8-23.8c0,0,11-7,21.5-0.2
		l10.8-17c0,0-11.2-4.2-11.2-19h-20.2c0,0,1.8,13.2-11,19c0,0-12.5,6.2-22.2,0C823.4,91.5,813.1,86,812.4,72.5z"/>
	<path id="d7" class="st0" d="M996.6,72.5h-20.2c0,0,0.2,15.2-11.5,19.2l10.2,17.8c0,0,11.2-8.8,22.8-1.2c0,0,12.5,6.8,10.5,24.8
		c0,0-1,10.2-10.8,14.2l11,17.8c0,0,11.2-9.9,21,0l10.5-17.8c0,0-10.2-3.8-10.8-14.8c0,0-1.8-16.2,10.8-23.8c0,0,11-7,21.5-0.2
		l10.8-17c0,0-11.2-4.2-11.2-19H1041c0,0,1.8,13.2-11,19c0,0-12.5,6.2-22.2,0C1007.6,91.5,997.4,86,996.6,72.5z"/>
	<path id="d6" class="st0" d="M949.1,167.5h20.2c0,0-0.2-15.2,11.5-19.2l-10.2-17.8c0,0-11.2,8.8-22.8,1.2c0,0-12.5-6.8-10.5-24.8
		c0,0,1-10.2,10.8-14.2l-11-17.8c0,0-11.2,9.9-21,0l-10.5,17.8c0,0,10.2,3.8,10.8,14.8c0,0,1.8,16.2-10.8,23.8c0,0-11,7-21.5,0.2
		l-10.8,17c0,0,11.2,4.2,11.2,19h20.2c0,0-1.8-13.2,11-19c0,0,12.5-6.2,22.2,0C938.1,148.5,948.4,154,949.1,167.5z"/>
	<path id="d2" class="st0" d="M377.9,72.5h-20.2c0,0,0.2,15.2-11.5,19.2l10.2,17.8c0,0,11.2-8.8,22.8-1.2c0,0,12.5,6.8,10.5,24.8
		c0,0-1,10.2-10.8,14.2l11,17.8c0,0,11.2-9.9,21,0l10.5-17.8c0,0-10.2-3.8-10.8-14.8c0,0-1.8-16.2,10.8-23.8c0,0,11-7,21.5-0.2
		l10.8-17c0,0-11.2-4.2-11.2-19h-20.2c0,0,1.8,13.2-11,19c0,0-12.5,6.2-22.2,0C388.9,91.5,378.6,86,377.9,72.5z"/>
	<path id="d4" class="st0" d="M562.1,72.5h-20.2c0,0,0.2,15.2-11.5,19.2l10.2,17.8c0,0,11.2-8.8,22.8-1.2c0,0,12.5,6.8,10.5,24.8
		c0,0-1,10.2-10.8,14.2l11,17.8c0,0,11.2-9.9,21,0l10.5-17.8c0,0-10.2-3.8-10.8-14.8c0,0-1.8-16.2,10.8-23.8c0,0,11-7,21.5-0.2
		l10.8-17c0,0-11.2-4.2-11.2-19h-20.2c0,0,1.8,13.2-11,19c0,0-12.5,6.2-22.2,0C573.1,91.5,562.9,86,562.1,72.5z"/>
	<path id="d3" class="st0" d="M514.6,167.5h20.2c0,0-0.2-15.2,11.5-19.2l-10.2-17.8c0,0-11.2,8.8-22.8,1.2c0,0-12.5-6.8-10.5-24.8
		c0,0,1-10.2,10.8-14.2l-11-17.8c0,0-11.2,9.9-21,0l-10.5,17.8c0,0,10.2,3.8,10.8,14.8c0,0,1.8,16.2-10.8,23.8c0,0-11,7-21.5,0.2
		l-10.8,17c0,0,11.2,4.2,11.2,19h20.2c0,0-1.8-13.2,11-19c0,0,12.5-6.2,22.2,0C503.6,148.5,513.9,154,514.6,167.5z"/>
	<path id="d15" class="st0" d="M382.9,530.8c0,0-10.2,8.5-22.2,0l-10,17.8c0,0,26,17,0,38.5l10,17.8c0,0,29.5-13,33,19h20.8
		c0,0-0.2-15.2,11.2-19.2L415.4,588c0,0-20,7.7-30.9-9.2c0,0-9.4-17.3,8.4-30.1L382.9,530.8z"/>
	<path id="d19" class="st0" d="M450.5,711.6c0,0,4.6-12.5,19.3-11.1l-0.2-20.4c0,0-31-1.7-19.2-33.3l-17.5-10.4c0,0-19.1,26-38.1,0
		l-18,10.4c0,0,7.8,13.1-0.1,22.3l17.1,9.2c0,0,13.5-16.6,31.3-7.5c0,0,16.8,10.3,7.8,30.2L450.5,711.6z"/>
	<path id="d11" class="st0" d="M113.7,455.4c0,0,8.3,10.4-0.4,22.2l17.5,10.4c0,0,17.5-25.6,38.5,0.8l17.9-9.6
		c0,0-12.4-29.8,19.7-32.6l0.4-20.8c0,0-15.2-0.1-19-11.6l-16.7,9.9c0,0,7.3,20.1-9.8,30.7c0,0-17.5,9-29.9-9L113.7,455.4z"/>
	<path id="d10" class="st0" d="M113.8,394.8V415c0,0,15.2-0.2,19.2,11.5l17.8-10.2c0,0-8.8-11.2-1.2-22.8c0,0,6.8-12.5,24.8-10.5
		c0,0,10.2,1,14.2,10.8l17.8-11c0,0-9.9-11.2,0-21l-17.8-10.5c0,0-3.8,10.2-14.8,10.8c0,0-16.2,1.8-23.8-10.8c0,0-7-11-0.2-21.5
		l-17-10.8c0,0-4.2,11.2-19,11.2v20.2c0,0,13.2-1.8,19,11c0,0,6.2,12.5,0,22.2C132.8,383.8,127.3,394,113.8,394.8z"/>
	<path id="d9" class="st0" d="M206.3,259.4v-20.2c0,0-15.2,0.2-19.2-11.5l-17.8,10.2c0,0,8.8,11.2,1.2,22.8c0,0-6.8,12.5-24.8,10.5
		c0,0-10.2-1-14.2-10.8l-17.8,11c0,0,9.9,11.2,0,21l17.8,10.5c0,0,3.8-10.2,14.8-10.8c0,0,16.2-1.8,23.8,10.8c0,0,7,11,0.2,21.5
		l17,10.8c0,0,4.2-11.2,19-11.2v-20.2c0,0-13.2,1.8-19-11c0,0-6.2-12.5,0-22.2C187.3,270.4,192.8,260.1,206.3,259.4z"/>
	<path id="d8" class="st0" d="M113.8,215.2v20.2c0,0,15.2-0.2,19.2,11.5l17.8-10.2c0,0-8.8-11.2-1.2-22.8c0,0,6.8-12.5,24.8-10.5
		c0,0,10.2,1,14.2,10.8l17.8-11c0,0-9.9-11.2,0-21l-17.8-10.5c0,0-3.8,10.2-14.8,10.8c0,0-16.2,1.8-23.8-10.8c0,0-7-11-0.2-21.5
		l-17-10.8c0,0-4.2,11.2-19,11.2V171c0,0,13.2-1.8,19,11c0,0,6.2,12.5,0,22.2C132.8,204.2,127.3,214.5,113.8,215.2z"/>
	<path id="d1" class="st0" d="M189.7,152.8c0,0,3.9-12.7,18.6-12.3l-1.4-20.3c0,0-31.1,0.2-21.2-32.1l-18.1-9.3
		c0,0-17.4,27.1-38,2.3l-17.3,11.4c0,0,8.6,12.6,1.2,22.3l17.7,8.1c0,0,12.5-17.4,30.8-9.4c0,0,17.4,9.3,9.6,29.7L189.7,152.8z"/>
</g>
<g id="landmarks-offices">
	<rect id="o1" x="221.7" y="90.3" class="st0" width="53.3" height="76.2"/>
	<rect id="o2" x="279.4" y="90.3" class="st0" width="53.3" height="76.2"/>
	<rect id="o3_1_" x="710.8" y="90.3" class="st0" width="53.3" height="76.2"/>
	<polygon id="o4" class="st2" points="649.9,362.5 556.4,362.5 556.4,440 603.1,440 603.1,393.6 649.9,393.6 	"/>
	<rect id="o5" x="258.9" y="508" class="st0" width="70" height="63.5"/>
	<rect id="o6_1_" x="78.4" y="567.8" class="st0" width="79.5" height="70.2"/>
	<rect id="o7" x="78.4" y="642.5" class="st0" width="79.5" height="54"/>
	<polygon id="o8" class="st0" points="157.9,719.5 157.9,700.5 78.4,700.5 78.4,790.7 185.9,790.7 185.9,719.5 	"/>
	<rect id="o9" x="189.9" y="719.5" class="st0" width="56.1" height="71.2"/>
	<path id="o10" class="st0" d="M249.9,719.5v70.8c0,0,44.5-1.9,82.5-7.8l-9-63H249.9z"/>
</g>
<g>
	<path d="M1150.7,97.5v1.7h-3.3l3.3,3.1v2.2l-3.1-3.1l-4.8,3.4v-2.2l3.5-2.4l-1-1h-2.5v-1.7H1150.7z"/>
	<path d="M1150.7,105.4v1.7h-7.9v-1.7H1150.7z"/>
	<path d="M1149.3,110.4v-2.4h1.5v6.4h-1.5v-2.4h-6.4v-1.7H1149.3z"/>
	<path d="M1148.1,120.6c0.8-0.1,1.4-0.9,1.4-1.7c0-1.6-1.3-2.1-2.7-2.1c-1.3,0-2.6,0.6-2.6,2.1c0,1.1,0.7,1.6,1.8,1.8v1.7
		c-2-0.2-3.2-1.5-3.2-3.5c0-2.4,1.8-3.9,4.1-3.9c2.3,0,4.1,1.4,4.1,3.9c0,1.7-1,3.2-2.8,3.4V120.6z"/>
	<path d="M1150.7,123.5v1.7h-3l0,3.2h3v1.7h-7.9v-1.7h3.4l0-3.2h-3.4v-1.7H1150.7z"/>
	<path d="M1150.7,131.7v5.9h-1.5v-4.1h-1.7v3.8h-1.3v-3.8h-1.9v4.2h-1.5v-6H1150.7z"/>
	<path d="M1150.7,138.8v1.7l-5.3,3.3v0h5.3v1.6h-7.9v-1.7l5.3-3.3v0h-5.3v-1.6H1150.7z"/>
</g>
<g>
	<path d="M1150.7,245.2v1.7h-6.4v3.8h-1.5v-5.6H1150.7z"/>
	<path d="M1150.9,255.2c0,2.4-1.8,3.9-4.1,3.9c-2.3,0-4.1-1.4-4.1-3.9c0-2.4,1.8-3.9,4.1-3.9
		C1149.1,251.4,1150.9,252.8,1150.9,255.2z M1144.1,255.2c0,1.6,1.3,2.1,2.6,2.1c1.4,0,2.7-0.6,2.7-2.1c0-1.6-1.3-2.1-2.7-2.1
		C1145.5,253.1,1144.1,253.7,1144.1,255.2z"/>
	<path d="M1145.9,266.9c-2.1,0-3.2-1.3-3.2-3.4c0-2.1,1-3.3,3.2-3.3h4.9v1.7h-4.9c-0.9,0-1.7,0.2-1.7,1.6c0,1.2,0.5,1.6,1.7,1.6h4.9
		v1.7H1145.9z"/>
	<path d="M1150.7,268.4v1.7l-5.3,3.3v0h5.3v1.6h-7.9v-1.7l5.3-3.3v0h-5.3v-1.6H1150.7z"/>
	<path d="M1143.8,282.3c-0.8-0.6-1.1-1.4-1.1-2.2c0-2.4,1.8-3.9,4.1-3.9c2.3,0,4.1,1.4,4.1,3.9c0,1.6-1,3.1-2.8,3.3v-1.7
		c0.9-0.2,1.3-0.8,1.3-1.7c0-1.6-1.3-2.1-2.7-2.1c-1.3,0-2.6,0.6-2.6,2.1c0,1.1,0.6,1.8,1.7,1.9v-1.7h1.3v3.3h-4.2v-1.1
		L1143.8,282.3z"/>
	<path d="M1150.7,284.9v5.9h-1.5v-4.1h-1.7v3.8h-1.3v-3.8h-1.9v4.2h-1.5v-6H1150.7z"/>
</g>
<g>
	<path d="M1031.8,496.5c-0.2-0.8-1.1-1.2-1.9-1.1c-1.5,0.3-1.9,1.6-1.7,3c0.2,1.3,1,2.5,2.5,2.2c1-0.2,1.5-1,1.5-2l1.6-0.3
		c0.1,2-1,3.4-2.9,3.7c-2.4,0.4-4.1-1.2-4.5-3.4c-0.4-2.3,0.7-4.3,3.1-4.7c1.7-0.3,3.3,0.5,3.8,2.2L1031.8,496.5z"/>
	<path d="M1037.7,492.7c2.4-0.4,4.1,1.2,4.5,3.5c0.4,2.2-0.8,4.3-3.2,4.7c-2.4,0.4-4.1-1.2-4.5-3.4
		C1034.2,495.1,1035.3,493.1,1037.7,492.7z M1038.8,499.3c1.5-0.3,1.9-1.6,1.7-2.9c-0.2-1.4-1-2.6-2.5-2.3c-1.5,0.3-1.9,1.6-1.7,3
		C1036.4,498.4,1037.2,499.6,1038.8,499.3z"/>
	<path d="M1042.7,492l5.4-0.9l0.2,1.4l-3.7,0.6l0.3,1.8l3.2-0.5l0.2,1.3l-3.2,0.5l0.5,3.2l-1.7,0.3L1042.7,492z"/>
	<path d="M1049.1,491l5.4-0.9l0.2,1.4l-3.7,0.6l0.3,1.8l3.2-0.5l0.2,1.3l-3.2,0.5l0.5,3.2l-1.7,0.3L1049.1,491z"/>
	<path d="M1055.5,489.9l5.8-1l0.2,1.4l-4.1,0.7l0.3,1.7l3.8-0.6l0.2,1.3l-3.8,0.6l0.3,1.9l4.2-0.7l0.2,1.4l-5.9,1L1055.5,489.9z"/>
	<path d="M1062.6,488.8l5.8-1l0.2,1.4l-4.1,0.7l0.3,1.7l3.8-0.6l0.2,1.3l-3.8,0.6l0.3,1.9l4.2-0.7l0.2,1.4l-5.9,1L1062.6,488.8z"/>
	<path d="M1072.6,487.1l3.6-0.6c1.5-0.2,2.6,0.1,2.8,1.5c0.1,0.8-0.2,1.4-0.8,1.8c1,0.1,1.6,0.8,1.7,1.7c0.3,1.6-1,2.5-2.4,2.7
		l-3.8,0.6L1072.6,487.1z M1074.8,490l1.7-0.3c0.6-0.1,1-0.4,0.9-1.1c-0.1-0.7-0.7-0.8-1.3-0.7l-1.6,0.3L1074.8,490z M1075.4,493.3
		l1.8-0.3c0.7-0.1,1.2-0.4,1.1-1.2c-0.1-0.8-0.7-1-1.4-0.9l-1.9,0.3L1075.4,493.3z"/>
	<path d="M1082.4,485.5l1.7-0.3l4.2,7.3l-1.8,0.3l-0.9-1.6l-2.9,0.5l-0.3,1.8l-1.7,0.3L1082.4,485.5z M1083,490.3l2-0.3l-1.4-2.7
		l0,0L1083,490.3z"/>
	<path d="M1087.7,484.6l4.2-0.7c1.4-0.2,2.4,0.6,2.6,1.8c0.1,0.9-0.1,1.7-0.9,2.1l0,0c0.9,0.1,1.2,0.9,1.4,1.6
		c0.1,0.5,0.3,1.4,0.6,1.8l-1.7,0.3c-0.3-0.5-0.4-1.2-0.6-1.8c-0.3-0.8-0.6-1.1-1.5-1l-1.7,0.3l0.5,3l-1.7,0.3L1087.7,484.6z
		 M1090,487.9l1.9-0.3c0.8-0.1,1.1-0.5,1-1.3c-0.1-0.7-0.6-1-1.3-0.9l-1.9,0.3L1090,487.9z"/>
</g>
<g>
	<path d="M832.9,464l1.4,3.4c0.6,1.4,0.5,2.5-0.8,3.1c-0.7,0.3-1.4,0.2-1.9-0.3c0.1,1-0.4,1.7-1.3,2.1c-1.5,0.6-2.6-0.4-3.2-1.7
		l-1.5-3.5L832.9,464z M830.6,466.8l0.7,1.6c0.2,0.6,0.7,0.9,1.3,0.6c0.7-0.3,0.6-0.9,0.4-1.4l-0.6-1.5L830.6,466.8z M827.5,468.1
		l0.7,1.7c0.3,0.6,0.7,1.1,1.4,0.8c0.7-0.3,0.8-0.9,0.6-1.6l-0.7-1.7L827.5,468.1z"/>
	<path d="M837.4,474.3c0.9,2.2-0.2,4.3-2.3,5.2c-2.1,0.9-4.3,0.3-5.3-2c-0.9-2.2,0.2-4.3,2.3-5.1
		C834.2,471.5,836.5,472.1,837.4,474.3z M831.2,476.9c0.6,1.4,2,1.5,3.2,1c1.3-0.5,2.3-1.6,1.7-3c-0.6-1.4-2-1.5-3.3-0.9
		C831.5,474.5,830.6,475.5,831.2,476.9z"/>
	<path d="M840,481l0.7,1.6l-6.1,5.7l-0.7-1.7l1.4-1.2l-1.1-2.7l-1.9,0.1l-0.7-1.6L840,481z M835.5,482.7l0.8,1.9l2.3-2l0,0
		L835.5,482.7z"/>
	<path d="M842.1,486l1.6,3.9c0.5,1.3,0,2.5-1.1,3c-0.9,0.4-1.6,0.3-2.3-0.4l0,0c0.1,0.9-0.5,1.4-1.3,1.8c-0.4,0.2-1.3,0.6-1.6,1
		l-0.7-1.6c0.4-0.4,1.1-0.7,1.6-1c0.7-0.4,0.9-0.9,0.6-1.7l-0.7-1.6l-2.8,1.2l-0.7-1.6L842.1,486z M839.5,488.9l0.7,1.7
		c0.3,0.7,0.8,1,1.5,0.7c0.7-0.3,0.8-0.8,0.5-1.5l-0.7-1.7L839.5,488.9z"/>
	<path d="M845.2,493.3l1.3,3.1c0.8,1.9,0.2,3.8-2.2,4.8c-2.1,0.9-4.1,0.5-5-1.7l-1.3-3.1L845.2,493.3z M839.9,497.4l0.6,1.4
		c0.4,0.9,1.3,1.6,2.9,0.9c1.5-0.6,2.2-1.5,1.5-3.1l-0.5-1.1L839.9,497.4z"/>
	<path d="M848.3,500.8l1.6,3.9c0.5,1.3,0,2.5-1.1,3c-0.9,0.4-1.6,0.3-2.3-0.4l0,0c0.1,0.9-0.5,1.4-1.3,1.8c-0.4,0.2-1.3,0.6-1.6,1
		l-0.7-1.6c0.4-0.4,1.1-0.7,1.6-1c0.7-0.4,0.9-0.9,0.6-1.7l-0.7-1.6l-2.8,1.2l-0.7-1.6L848.3,500.8z M845.7,503.8l0.7,1.7
		c0.3,0.7,0.8,1,1.5,0.7c0.7-0.3,0.8-0.8,0.5-1.5l-0.7-1.7L845.7,503.8z"/>
	<path d="M852.9,511.3c0.9,2.2-0.2,4.3-2.3,5.2c-2.1,0.9-4.3,0.3-5.3-2c-0.9-2.2,0.2-4.3,2.3-5.1C849.8,508.5,852,509.1,852.9,511.3
		z M846.7,513.9c0.6,1.4,2,1.5,3.3,1c1.3-0.5,2.3-1.6,1.7-3c-0.6-1.4-2-1.5-3.3-0.9C847.1,511.5,846.1,512.5,846.7,513.9z"/>
	<path d="M856.2,519.2c0.9,2.2-0.2,4.3-2.3,5.2c-2.1,0.9-4.3,0.3-5.3-2c-0.9-2.2,0.2-4.3,2.3-5.1C853.1,516.3,855.3,517,856.2,519.2
		z M850,521.8c0.6,1.4,2,1.5,3.2,1c1.3-0.5,2.3-1.6,1.7-3c-0.6-1.4-2-1.5-3.3-0.9C850.4,519.3,849.4,520.4,850,521.8z"/>
	<path d="M858,523.9l0.9,2.2l-4.3,3.8l0,0l5.7-0.5l0.9,2.2l-7.2,3l-0.6-1.5l5.1-2.2l0,0l-5.9,0.4l-0.5-1.2l4.3-3.9l0,0l-5.1,2.1
		l-0.6-1.5L858,523.9z"/>
</g>
<g>
	<path d="M196.4,528.6h-1.9l-2.6-7.9h1.8l1.7,5.5h0l1.8-5.5h1.8L196.4,528.6z"/>
	<path d="M199.7,520.8h1.7v7.9h-1.7V520.8z"/>
	<path d="M202.9,520.8h3.5c2,0,2.7,1.2,2.7,2.5s-0.8,2.5-2.7,2.5h-1.8v2.8h-1.7V520.8z M204.6,524.5h1.3c0.8,0,1.5-0.2,1.5-1.2
		s-0.7-1.2-1.5-1.2h-1.3V524.5z"/>
	<path d="M214.5,526c0,1,0.8,1.5,1.7,1.5c0.6,0,1.5-0.2,1.5-1c0-0.8-1.2-1-2.3-1.3c-1.2-0.3-2.3-0.8-2.3-2.2c0-1.6,1.5-2.4,2.9-2.4
		c1.6,0,3.1,0.7,3.1,2.5h-1.7c-0.1-0.9-0.7-1.2-1.6-1.2c-0.6,0-1.2,0.2-1.2,0.9c0,0.6,0.4,0.7,2.3,1.2c0.6,0.1,2.3,0.5,2.3,2.3
		c0,1.4-1.1,2.5-3.3,2.5c-1.7,0-3.4-0.9-3.3-2.8H214.5z"/>
	<path d="M227.1,525.7c0,2.1-1.3,3.2-3.4,3.2c-2.1,0-3.3-1-3.3-3.2v-4.9h1.7v4.9c0,0.9,0.2,1.7,1.6,1.7c1.2,0,1.6-0.5,1.6-1.7v-4.9
		h1.7V525.7z"/>
	<path d="M228.6,520.8h1.7v7.9h-1.7V520.8z"/>
	<path d="M233.6,522.2h-2.4v-1.5h6.4v1.5h-2.4v6.4h-1.7V522.2z"/>
	<path d="M238.6,520.8h5.9v1.5h-4.1v1.7h3.8v1.3h-3.8v1.9h4.2v1.5h-6V520.8z"/>
</g>
<g>
	<path d="M93.7,535.1H92l-1.3-5.3h0l-1.3,5.3h-1.7l-2.1-7.9h1.7l1.2,5.3h0l1.4-5.3h1.6l1.3,5.4h0l1.3-5.4h1.7L93.7,535.1z"/>
	<path d="M100.1,527.1c2.4,0,3.9,1.8,3.9,4.1c0,2.3-1.4,4.1-3.9,4.1c-2.4,0-3.9-1.8-3.9-4.1C96.2,528.9,97.7,527.1,100.1,527.1z
		 M100.1,533.9c1.6,0,2.1-1.3,2.1-2.6c0-1.4-0.6-2.7-2.1-2.7s-2.1,1.3-2.1,2.7C98,532.5,98.6,533.9,100.1,533.9z"/>
	<path d="M105.1,527.3h4.2c1.4,0,2.3,1,2.3,2.2c0,0.9-0.4,1.6-1.2,2v0c0.8,0.2,1.1,1,1.1,1.8c0,0.5,0,1.4,0.3,1.9h-1.7
		c-0.2-0.5-0.2-1.3-0.3-1.9c-0.1-0.8-0.4-1.2-1.3-1.2h-1.7v3.1h-1.7V527.3z M106.9,530.8h1.9c0.8,0,1.2-0.3,1.2-1.1
		c0-0.8-0.4-1.1-1.2-1.1h-1.9V530.8z"/>
	<path d="M113.1,527.3h1.7v6.4h3.8v1.5h-5.6V527.3z"/>
	<path d="M119.6,527.3h3.4c2,0,3.6,1.3,3.6,3.9c0,2.3-1.2,4-3.6,4h-3.4V527.3z M121.3,533.7h1.5c1,0,2-0.6,2-2.4
		c0-1.6-0.6-2.6-2.3-2.6h-1.2V533.7z"/>
	<path d="M135.2,535.1h-1.7l-1.3-5.3h0l-1.3,5.3h-1.7l-2.1-7.9h1.7l1.2,5.3h0l1.4-5.3h1.6l1.3,5.4h0l1.3-5.4h1.7L135.2,535.1z"/>
	<path d="M138.1,527.3h1.7v7.9h-1.7V527.3z"/>
	<path d="M141.4,527.3h3.4c2,0,3.6,1.3,3.6,3.9c0,2.3-1.2,4-3.6,4h-3.4V527.3z M143.1,533.7h1.5c1,0,2-0.6,2-2.4
		c0-1.6-0.6-2.6-2.3-2.6h-1.2V533.7z"/>
	<path d="M149.5,527.3h5.9v1.5h-4.1v1.7h3.8v1.3h-3.8v1.9h4.2v1.5h-6V527.3z"/>
	<path d="M103.9,540.5h4.2c1.4,0,2.3,1,2.3,2.2c0,0.9-0.4,1.6-1.2,2v0c0.8,0.2,1.1,1,1.1,1.8c0,0.5,0,1.4,0.3,1.9H109
		c-0.2-0.5-0.2-1.3-0.3-1.9c-0.1-0.8-0.4-1.2-1.3-1.2h-1.7v3.1h-1.7V540.5z M105.6,544h1.9c0.8,0,1.2-0.3,1.2-1.1
		c0-0.8-0.4-1.1-1.2-1.1h-1.9V544z"/>
	<path d="M115.4,540.3c2.4,0,3.9,1.8,3.9,4.1c0,2.3-1.4,4.1-3.9,4.1c-2.4,0-3.9-1.8-3.9-4.1C111.5,542.1,112.9,540.3,115.4,540.3z
		 M115.4,547.1c1.6,0,2.1-1.3,2.1-2.6c0-1.4-0.6-2.7-2.1-2.7s-2.1,1.3-2.1,2.7C113.2,545.7,113.8,547.1,115.4,547.1z"/>
	<path d="M123.9,540.3c2.4,0,3.9,1.8,3.9,4.1c0,2.3-1.4,4.1-3.9,4.1c-2.4,0-3.9-1.8-3.9-4.1C120.1,542.1,121.5,540.3,123.9,540.3z
		 M123.9,547.1c1.6,0,2.1-1.3,2.1-2.6c0-1.4-0.6-2.7-2.1-2.7s-2.1,1.3-2.1,2.7C121.8,545.7,122.4,547.1,123.9,547.1z"/>
	<path d="M129,540.5h2.4l1.8,5.4h0l1.7-5.4h2.4v7.9h-1.6v-5.6h0l-1.9,5.6h-1.3l-1.9-5.5h0v5.5H129V540.5z"/>
</g>
</svg>
