<?xml version="1.0" encoding="utf-8"?>
<!-- Generator: Adobe Illustrator 21.1.0, SVG Export Plug-In . SVG Version: 6.00 Build 0)  -->
<svg version="1.1" id="Floor_B" xmlns="http://www.w3.org/2000/svg" xmlns:xlink="http://www.w3.org/1999/xlink" x="0px" y="0px"
	 viewBox="0 0 1260.4 925" style="enable-background:new 0 0 1260.4 925;" xml:space="preserve">
<style type="text/css">
	.st2-0{fill:none;stroke:#231F20;stroke-width:10;stroke-miterlimit:10;}
	.st2-1{fill:#231F20;}
	.st2-2{fill:#7F7F7F;}
	.st2-3{fill:#C4C4C4 !important;}
	.st2-4{fill:#050000;}
</style>
<g id="nopointer-stuff-2">
	<path id="outline-2" class="st2-0" d="M77,42.3v746.8h163.8c0,0,211.3-7.4,387.9-83.6l574.4-246V42.3H77z"/>
	<g id="waves-2">
		<path id="w4" class="st2-1" d="M594.9,867.5c-10,0-18.5-4.9-22.9-9l6.8-7.3c1.6,1.5,15.9,13.7,31.6-0.1l3.1-2.7l3.3,2.5
			c0.7,0.5,18.1,13.4,31.1,0.4l2.7-2.7l3.3,1.9c0.2,0.1,20.9,11.9,31.9,0.8l7.1,7.1c-7,7-17,9.3-28.9,6.6c-4.9-1.1-9.1-2.8-11.9-4.1
			c-13.2,10.5-29.1,5.7-38.2,0.2C607.4,865.7,600.8,867.5,594.9,867.5z"/>
		<path id="w3" class="st2-1" d="M487.9,867.5c-10,0-18.5-4.9-22.9-9l6.8-7.3l-3.4,3.7l3.4-3.7c1.6,1.5,15.9,13.7,31.6-0.1l3.1-2.7
			l3.3,2.5c0.7,0.5,18.1,13.4,31.1,0.4l2.7-2.7l3.3,1.9c0.2,0.1,20.9,11.9,31.9,0.8l7.1,7.1c-7,7-17,9.3-28.9,6.6
			c-4.9-1.1-9.1-2.8-11.9-4.1c-13.2,10.5-29.1,5.7-38.2,0.2C500.5,865.8,493.9,867.5,487.9,867.5z"/>
		<path id="w2" class="st2-1" d="M809.8,867.5c-10,0-18.5-4.9-22.9-9l6.8-7.3l-3.4,3.7l3.4-3.7c1.6,1.5,15.9,13.7,31.6-0.1l3.1-2.7
			l3.3,2.5c0.7,0.5,18.1,13.4,31.1,0.4l2.7-2.7l3.3,1.9c0.2,0.1,20.9,11.9,32,0.8l7.1,7.1c-7,7-17,9.3-28.9,6.6
			c-4.9-1.1-9.1-2.8-11.9-4.1c-13.2,10.5-29.1,5.7-38.2,0.2C822.3,865.8,815.8,867.5,809.8,867.5z"/>
		<path id="w1" class="st2-1" d="M702.4,867.5c-10,0-18.5-4.9-22.9-9l6.8-7.3l-3.4,3.7l3.4-3.7c1.6,1.5,15.9,13.7,31.6-0.1l3.1-2.7
			l3.3,2.5c0.7,0.5,18.1,13.4,31.1,0.4l2.7-2.7l3.3,1.9c0.2,0.1,20.9,11.9,32,0.8l7.1,7.1c-7,7-17,9.3-28.9,6.6
			c-4.9-1.1-9.1-2.8-11.9-4.1c-13.2,10.5-29.1,5.7-38.2,0.2C715,865.8,708.4,867.5,702.4,867.5z"/>
	</g>
	<g id="named-shapes-2">
		<rect id="den-shahpe" x="326.4" y="264" class="st2-2" width="48" height="69"/>
		<rect id="workshop-shape" x="239.4" y="55.5" class="st2-2" width="135" height="107.9"/>
		<rect id="cr-shape" x="239.4" y="184" class="st2-2" width="59" height="73.7"/>
		<rect id="grow-shape" x="81.5" y="46.5" class="st2-2" width="64.4" height="73.5"/>
		<rect id="huddle-shape" x="81.5" y="196.3" class="st2-2" width="64.4" height="50.8"/>
		<rect id="maker-shape" x="706.2" y="97" class="st2-2" width="62" height="79"/>
		<rect id="mom-shape" x="913" y="54.5" class="st2-2" width="48" height="41"/>
	</g>
	<polygon id="no7" class="st2-3" points="1100.4,182.1 1069.4,182.1 1069.4,159.5 889.4,159.5 889.4,182.1 403.4,182.1 403.4,318.1 
		374.4,318.1 374.4,334.1 393,334.1 393,358.1 1048.4,358.1 1048.4,333.1 1100.4,333.1 	"/>
	<rect id="no10" x="830.7" y="97" class="st2-3" width="53" height="79"/>
	<rect id="no9" x="773.2" y="97" class="st2-3" width="52" height="37"/>
	<rect id="no8" x="773.2" y="138.5" class="st2-3" width="52" height="37"/>
	<rect id="no3" x="326.4" y="185.1" class="st2-3" width="48" height="73.7"/>
	<rect id="no2" x="913.4" y="102.1" class="st2-3" width="48" height="52.4"/>
	<rect id="no1" x="239.4" y="265.1" class="st2-3" width="59" height="69"/>
	<g id="workshop">
		<path id="ww" d="M282.7,113.8H281l-1.3-5.3l0,0l-1.3,5.3h-1.7l-2.1-7.9h1.7l1.2,5.3l0,0l1.4-5.3h1.6l1.3,5.4l0,0l1.3-5.4h1.7
			L282.7,113.8z"/>
		<path id="wo2" d="M289.2,105.8c2.4,0,3.9,1.8,3.9,4.1c0,2.3-1.4,4.1-3.9,4.1c-2.4,0-3.9-1.8-3.9-4.1
			C285.3,107.6,286.7,105.8,289.2,105.8z M289.2,112.6c1.6,0,2.1-1.3,2.1-2.6c0-1.4-0.6-2.7-2.1-2.7s-2.1,1.3-2.1,2.7
			C287,111.2,287.6,112.6,289.2,112.6z"/>
		<path id="wr" d="M294.2,106h4.2c1.4,0,2.3,1,2.3,2.2c0,0.9-0.4,1.6-1.2,2l0,0c0.8,0.2,1.1,1,1.1,1.8c0,0.5,0,1.4,0.3,1.9h-1.7
			c-0.2-0.5-0.2-1.3-0.3-1.9c-0.1-0.8-0.4-1.2-1.3-1.2h-1.7v3.1h-1.7L294.2,106L294.2,106z M295.9,109.5h1.9c0.8,0,1.2-0.3,1.2-1.1
			c0-0.8-0.4-1.1-1.2-1.1h-1.9V109.5z"/>
		<path id="wk" d="M302.1,106h1.7v3.3l3.1-3.3h2.2l-3.1,3.1l3.4,4.8h-2.2l-2.4-3.5l-1,1v2.5h-1.7V106z"/>
		<path id="ws" d="M311.3,111.2c0,1,0.8,1.5,1.7,1.5c0.6,0,1.5-0.2,1.5-1s-1.2-1-2.3-1.3c-1.2-0.3-2.3-0.8-2.3-2.2
			c0-1.6,1.5-2.4,2.9-2.4c1.6,0,3.1,0.7,3.1,2.5h-1.7c-0.1-0.9-0.7-1.2-1.6-1.2c-0.6,0-1.2,0.2-1.2,0.9c0,0.6,0.4,0.7,2.3,1.2
			c0.6,0.1,2.3,0.5,2.3,2.3c0,1.4-1.1,2.5-3.3,2.5c-1.7,0-3.4-0.9-3.3-2.8H311.3z"/>
		<path id="wh" d="M317.2,106h1.7v3h3.2v-3h1.7v7.9h-1.7v-3.4h-3.2v3.4h-1.7V106z"/>
		<path id="wo" d="M328.9,105.8c2.4,0,3.9,1.8,3.9,4.1c0,2.3-1.4,4.1-3.9,4.1c-2.4,0-3.9-1.8-3.9-4.1
			C325,107.6,326.5,105.8,328.9,105.8z M328.9,112.6c1.6,0,2.1-1.3,2.1-2.6c0-1.4-0.6-2.7-2.1-2.7s-2.1,1.3-2.1,2.7
			C326.8,111.2,327.3,112.6,328.9,112.6z"/>
		<path id="wp" d="M333.9,106h3.5c2,0,2.7,1.2,2.7,2.5s-0.8,2.5-2.7,2.5h-1.8v2.8h-1.7V106z M335.7,109.7h1.3c0.8,0,1.5-0.2,1.5-1.2
			s-0.7-1.2-1.5-1.2h-1.3V109.7z"/>
	</g>
	<g id="den">
		<path d="M339,292.6h3.4c2,0,3.6,1.3,3.6,3.9c0,2.3-1.2,4-3.6,4H339V292.6z M340.8,299h1.5c1,0,2-0.6,2-2.4c0-1.6-0.6-2.6-2.3-2.6
			h-1.2V299z"/>
		<path d="M347.2,292.6h5.9v1.5H349v1.7h3.8v1.3H349v1.9h4.2v1.5h-6V292.6z"/>
		<path d="M354.3,292.6h1.7l3.3,5.3l0,0v-5.3h1.6v7.9h-1.7l-3.3-5.3l0,0v5.3h-1.6V292.6z"/>
	</g>
	<g id="huddle-room">
		<path d="M91.6,211h1.7v3h3.2v-3h1.7v7.9h-1.7v-3.4h-3.2v3.4h-1.7V211z"/>
		<path d="M106.4,215.9c0,2.1-1.3,3.2-3.4,3.2s-3.3-1-3.3-3.2V211h1.7v4.9c0,0.9,0.2,1.7,1.6,1.7c1.2,0,1.6-0.5,1.6-1.7V211h1.7v4.9
			H106.4z"/>
		<path d="M107.9,211h3.4c2,0,3.6,1.3,3.6,3.9c0,2.3-1.2,4-3.6,4h-3.4V211z M109.7,217.4h1.5c1,0,2-0.6,2-2.4c0-1.6-0.6-2.6-2.3-2.6
			h-1.2V217.4z"/>
		<path d="M116.1,211h3.4c2,0,3.6,1.3,3.6,3.9c0,2.3-1.2,4-3.6,4h-3.4V211z M117.8,217.4h1.5c1,0,2-0.6,2-2.4c0-1.6-0.6-2.6-2.3-2.6
			h-1.2V217.4z"/>
		<path d="M124.2,211h1.7v6.4h3.8v1.5h-5.6L124.2,211L124.2,211z"/>
		<path d="M130.8,211h5.9v1.5h-4.1v1.7h3.8v1.3h-3.8v1.9h4.2v1.5h-6L130.8,211L130.8,211z"/>
		<path d="M97.2,224.2h4.2c1.4,0,2.3,1,2.3,2.2c0,0.9-0.4,1.6-1.2,2l0,0c0.8,0.2,1.1,1,1.1,1.8c0,0.5,0,1.4,0.3,1.9h-1.7
			c-0.2-0.5-0.2-1.3-0.3-1.9c-0.1-0.8-0.4-1.2-1.3-1.2H99v3.1h-1.7v-7.9H97.2z M99,227.8h1.9c0.8,0,1.2-0.3,1.2-1.1
			s-0.4-1.1-1.2-1.1H99V227.8z"/>
		<path d="M108.7,224c2.4,0,3.9,1.8,3.9,4.1s-1.4,4.1-3.9,4.1c-2.4,0-3.9-1.8-3.9-4.1C104.8,225.8,106.3,224,108.7,224z
			 M108.7,230.8c1.6,0,2.1-1.3,2.1-2.6c0-1.4-0.6-2.7-2.1-2.7s-2.1,1.3-2.1,2.7C106.6,229.5,107.2,230.8,108.7,230.8z"/>
		<path d="M117.3,224c2.4,0,3.9,1.8,3.9,4.1s-1.4,4.1-3.9,4.1c-2.4,0-3.9-1.8-3.9-4.1S114.8,224,117.3,224z M117.3,230.8
			c1.6,0,2.1-1.3,2.1-2.6c0-1.4-0.6-2.7-2.1-2.7s-2.1,1.3-2.1,2.7C115.1,229.5,115.7,230.8,117.3,230.8z"/>
		<path d="M122.3,224.2h2.4l1.8,5.4l0,0l1.7-5.4h2.4v7.9H129v-5.6l0,0l-1.9,5.6h-1.3l-1.9-5.5l0,0v5.5h-1.6
			C122.3,232.1,122.3,224.2,122.3,224.2z"/>
	</g>
	<g id="grow-room">
		<path d="M102.8,80.3c-0.6,0.8-1.4,1.1-2.2,1.1c-2.4,0-3.9-1.8-3.9-4.1c0-2.3,1.4-4.1,3.9-4.1c1.6,0,3.1,1,3.3,2.8h-1.7
			c-0.2-0.9-0.8-1.3-1.7-1.3c-1.6,0-2.1,1.3-2.1,2.7c0,1.3,0.6,2.6,2.1,2.6c1.1,0,1.8-0.6,1.9-1.7h-1.7V77h3.3v4.2h-1L102.8,80.3z"
			/>
		<path d="M105.5,73.4h4.2c1.4,0,2.3,1,2.3,2.2c0,0.9-0.4,1.6-1.2,2l0,0c0.8,0.2,1.1,1,1.1,1.8c0,0.5,0,1.4,0.3,1.9h-1.7
			c-0.2-0.5-0.2-1.3-0.3-1.9c-0.1-0.8-0.4-1.2-1.3-1.2h-1.7v3.1h-1.7C105.5,81.3,105.5,73.4,105.5,73.4z M107.2,76.9h1.9
			c0.8,0,1.2-0.3,1.2-1.1c0-0.8-0.4-1.1-1.2-1.1h-1.9V76.9z"/>
		<path d="M117,73.2c2.4,0,3.9,1.8,3.9,4.1c0,2.3-1.4,4.1-3.9,4.1c-2.4,0-3.9-1.8-3.9-4.1S114.5,73.2,117,73.2z M117,80
			c1.6,0,2.1-1.3,2.1-2.6c0-1.4-0.6-2.7-2.1-2.7s-2.1,1.3-2.1,2.7C114.8,78.7,115.4,80,117,80z"/>
		<path d="M129.5,81.2h-1.7l-1.3-5.3l0,0l-1.3,5.3h-1.7l-2.1-7.9h1.7l1.2,5.3l0,0l1.4-5.3h1.6l1.3,5.4l0,0l1.3-5.4h1.7L129.5,81.2z"
			/>
		<path d="M97.2,86.6h4.2c1.4,0,2.3,1,2.3,2.2c0,0.9-0.4,1.6-1.2,2l0,0c0.8,0.2,1.1,1,1.1,1.8c0,0.5,0,1.4,0.3,1.9h-1.7
			c-0.2-0.5-0.2-1.3-0.3-1.9c-0.1-0.8-0.4-1.2-1.3-1.2H99v3.1h-1.7v-7.9H97.2z M99,90.1h1.9c0.8,0,1.2-0.3,1.2-1.1
			c0-0.8-0.4-1.1-1.2-1.1H99V90.1z"/>
		<path d="M108.7,86.4c2.4,0,3.9,1.8,3.9,4.1c0,2.3-1.4,4.1-3.9,4.1c-2.4,0-3.9-1.8-3.9-4.1C104.8,88.2,106.3,86.4,108.7,86.4z
			 M108.7,93.2c1.6,0,2.1-1.3,2.1-2.6c0-1.4-0.6-2.7-2.1-2.7s-2.1,1.3-2.1,2.7C106.6,91.9,107.2,93.2,108.7,93.2z"/>
		<path d="M117.3,86.4c2.4,0,3.9,1.8,3.9,4.1c0,2.3-1.4,4.1-3.9,4.1c-2.4,0-3.9-1.8-3.9-4.1C113.4,88.2,114.8,86.4,117.3,86.4z
			 M117.3,93.2c1.6,0,2.1-1.3,2.1-2.6c0-1.4-0.6-2.7-2.1-2.7s-2.1,1.3-2.1,2.7C115.1,91.9,115.7,93.2,117.3,93.2z"/>
		<path d="M122.3,86.6h2.4l1.8,5.4l0,0l1.7-5.4h2.4v7.9H129v-5.6l0,0l-1.9,5.6h-1.3l-1.9-5.5l0,0v5.5h-1.6
			C122.3,94.5,122.3,86.6,122.3,86.6z"/>
	</g>
	<g id="maker-lab">
		<path d="M718.5,126.4h2.4l1.8,5.4l0,0l1.7-5.4h2.4v7.9h-1.6v-5.6l0,0l-1.9,5.6H722l-1.9-5.5l0,0v5.5h-1.6L718.5,126.4L718.5,126.4
			z"/>
		<path d="M730.6,126.4h1.8l2.9,7.9h-1.8l-0.6-1.7H730l-0.6,1.7h-1.7L730.6,126.4z M730.5,131.2h2l-1-2.9l0,0L730.5,131.2z"/>
		<path d="M736,126.4h1.7v3.3l3.1-3.3h2.2l-3.1,3.1l3.4,4.8h-2.2l-2.4-3.5l-1,1v2.5H736V126.4z"/>
		<path d="M744,126.4h5.9v1.5h-4.1v1.7h3.8v1.3h-3.8v1.9h4.2v1.5h-6L744,126.4L744,126.4z"/>
		<path d="M751.1,126.4h4.2c1.4,0,2.3,1,2.3,2.2c0,0.9-0.4,1.6-1.2,2l0,0c0.8,0.2,1.1,1,1.1,1.8c0,0.5,0,1.4,0.3,1.9h-1.7
			c-0.2-0.5-0.2-1.3-0.3-1.9c-0.1-0.8-0.4-1.2-1.3-1.2h-1.7v3.1h-1.7L751.1,126.4L751.1,126.4z M752.8,129.9h1.9
			c0.8,0,1.2-0.3,1.2-1.1s-0.4-1.1-1.2-1.1h-1.9V129.9z"/>
		<path d="M727.9,139.6h1.7v6.4h3.8v1.5h-5.6L727.9,139.6L727.9,139.6z"/>
		<path d="M736.5,139.6h1.8l2.9,7.9h-1.8l-0.6-1.7h-2.9l-0.6,1.7h-1.8L736.5,139.6z M736.4,144.4h2l-1-2.9l0,0L736.4,144.4z"/>
		<path d="M741.9,139.6h3.7c1.5,0,2.5,0.5,2.5,1.9c0,0.8-0.4,1.3-1.1,1.6c1,0.3,1.4,1,1.4,2c0,1.6-1.4,2.3-2.8,2.3h-3.8L741.9,139.6
			L741.9,139.6z M743.6,142.7h1.7c0.6,0,1.1-0.3,1.1-0.9c0-0.7-0.6-0.9-1.2-0.9h-1.6V142.7z M743.6,146.1h1.8c0.7,0,1.3-0.2,1.3-1
			s-0.5-1.1-1.2-1.1h-1.9L743.6,146.1L743.6,146.1z"/>
	</g>
	<g id="mom-room">
		<path d="M924.5,63.6h2.4l1.8,5.4l0,0l1.7-5.4h2.4v7.9h-1.6v-5.6l0,0l-1.9,5.6H928l-1.9-5.5l0,0v5.5h-1.6L924.5,63.6L924.5,63.6z"
			/>
		<path d="M938,63.5c2.4,0,3.9,1.8,3.9,4.1c0,2.3-1.4,4.1-3.9,4.1c-2.4,0-3.9-1.8-3.9-4.1S935.6,63.5,938,63.5z M938,70.2
			c1.6,0,2.1-1.3,2.1-2.6c0-1.4-0.6-2.7-2.1-2.7s-2.1,1.3-2.1,2.7C935.9,68.9,936.4,70.2,938,70.2z"/>
		<path d="M943,63.6h2.4l1.8,5.4l0,0l1.7-5.4h2.4v7.9h-1.6v-5.6l0,0l-1.9,5.6h-1.3l-1.9-5.5l0,0v5.5H943V63.6z"/>
		<path d="M921.2,76.8h4.2c1.4,0,2.3,1,2.3,2.2c0,0.9-0.4,1.6-1.2,2l0,0c0.8,0.2,1.1,1,1.1,1.8c0,0.5,0,1.4,0.3,1.9h-1.7
			c-0.2-0.5-0.2-1.3-0.3-1.9c-0.1-0.8-0.4-1.2-1.3-1.2H923v3.1h-1.7L921.2,76.8L921.2,76.8z M923,80.4h1.9c0.8,0,1.2-0.3,1.2-1.1
			c0-0.8-0.4-1.1-1.2-1.1H923V80.4z"/>
		<path d="M932.7,76.7c2.4,0,3.9,1.8,3.9,4.1c0,2.3-1.4,4.1-3.9,4.1c-2.4,0-3.9-1.8-3.9-4.1S930.3,76.7,932.7,76.7z M932.7,83.4
			c1.6,0,2.1-1.3,2.1-2.6c0-1.4-0.6-2.7-2.1-2.7s-2.1,1.3-2.1,2.7C930.6,82.1,931.2,83.4,932.7,83.4z"/>
		<path d="M941.3,76.7c2.4,0,3.9,1.8,3.9,4.1c0,2.3-1.4,4.1-3.9,4.1s-3.9-1.8-3.9-4.1C937.4,78.5,938.8,76.7,941.3,76.7z
			 M941.3,83.4c1.6,0,2.1-1.3,2.1-2.6c0-1.4-0.6-2.7-2.1-2.7c-1.6,0-2.1,1.3-2.1,2.7C939.1,82.1,939.7,83.4,941.3,83.4z"/>
		<path d="M946.3,76.8h2.4l1.8,5.4l0,0l1.7-5.4h2.4v7.9H953v-5.6l0,0l-1.9,5.6h-1.3l-1.9-5.5l0,0v5.5h-1.6L946.3,76.8L946.3,76.8z"
			/>
	</g>
</g>
<g id="landmarks-offices-2">
	<rect id="o12" x="81.5" y="125.3" class="st2-4" width="64.4" height="65.5"/>
</g>
<g id="landmarks-desks-2">
	<path id="d27" class="st2-1" d="M201.4,243.3c0,0-0.7-14.7,11-20.3l-9.7-18.6c0,0-12,9.7-23,0l-10.3,18c0,0,11.7,8,11.7,21
		L201.4,243.3L201.4,243.3z"/>
	<path id="d26" class="st2-1" d="M179.4,107.1c0,0,11,5.1,22.3,0l10.7,17.2c0,0-24.3,17.8,0,39.1l-10.3,17.2c0,0-9-7-22.7,0l-10-17.2
		c0,0,25.7-19.5,0-38.8L179.4,107.1z"/>
	<path id="d25" class="st2-4" d="M650.7,158.4H671c0,0-0.2-15.2,11.5-19.2l-10.2-17.8c0,0-11.2,8.8-22.8,1.2c0,0-12.5-6.8-10.5-24.8
		c0,0,1-10.2,10.8-14.2l-11-17.8c0,0-11.2,9.9-21,0l-10.5,17.8c0,0,10.2,3.8,10.8,14.8c0,0,1.8,16.2-10.8,23.8c0,0-11,7-21.5,0.2
		l-10.8,17c0,0,11.2,4.2,11.2,19h20.2c0,0-1.8-13.2,11-19c0,0,12.5-6.2,22.2,0C639.7,139.4,650,144.9,650.7,158.4z"/>
	<path id="d24" class="st2-4" d="M518.1,137.2l10.6,17.2c0,0,12.8-8.2,22.4-0.3l9.7-18.1c0,0-13.4-5-13-18.7c0,0-0.8-14.2,15.5-21.9
		c0,0,9.2-4.5,17.8,1.7l9.3-18.7c0,0-14.3-4.3-11-17.9l-20.6,0.4c0,0,2.2,10.7-6.9,16.9c0,0-12.9,10-25.9,3.3
		c0,0-11.7-5.7-11.5-18.2l-20.1-0.2c0,0,2.3,11.8-10.2,19.6l10.6,17.2c0,0,10.4-8.4,22-0.6c0,0,11.9,7.3,11.7,18.9
		C528.5,117.8,529.2,129.5,518.1,137.2z"/>
	<path id="d23" class="st2-4" d="M468.7,158.4H489c0,0-0.2-15.2,11.5-19.2l-10.2-17.8c0,0-11.2,8.8-22.8,1.2c0,0-12.5-6.8-10.5-24.8
		c0,0,1-10.2,10.8-14.2l-11-17.8c0,0-11.2,9.9-21,0l-10.5,17.8c0,0,10.2,3.8,10.8,14.8c0,0,1.8,16.2-10.8,23.8c0,0-11,7-21.5,0.2
		l-10.8,17c0,0,11.2,4.2,11.2,19h20.2c0,0-1.8-13.2,11-19c0,0,12.5-6.2,22.2,0C457.7,139.4,468,144.9,468.7,158.4z"/>
	<path id="d22_1_" class="st2-1" d="M180.4,47c0,0,0.7,14.7-11,20.3l9.7,18.7c0,0,12-9.7,23,0l10.3-18c0,0-11.7-8-11.7-21H180.4z"/>
</g>
</svg>
