<?xml version="1.0" encoding="utf-8"?>
<!-- Generator: Adobe Illustrator 21.1.0, SVG Export Plug-In . SVG Version: 6.00 Build 0)  -->
<svg version="1.1" id="Level_A" xmlns="http://www.w3.org/2000/svg" xmlns:xlink="http://www.w3.org/1999/xlink" x="0px" y="0px"
	 viewBox="0 0 1260.4 925" style="enable-background:new 0 0 1260.4 925;" xml:space="preserve">
<style type="text/css">
	.st0{fill:#7F7F7F;}
	.st1{fill:#231F20;}
	.st2{fill:none;stroke:#231F20;stroke-width:10;stroke-miterlimit:10;}
	.st3{fill:#050000;}
</style>
<g id="nopointer-stuff">
	<g id="offices">
		<rect id="x20" x="653.1" y="90.3" class="st0" width="53.3" height="76.2"/>
		<polygon id="x19" class="st0" points="81.4,508 157.9,508 157.9,564 78.4,564 78.4,508 		"/>
		<polygon id="x18" class="st0" points="232.4,362.5 232.4,480.5 316.9,480.5 299.4,362.5 		"/>
		<polygon id="x17" class="st0" points="180.9,508 185.9,542 254.9,542 254.9,508 		"/>
		<polygon id="x16" class="st0" points="258.9,575.3 258.9,633 338.4,633 328.9,575.3 		"/>
		<polygon id="x15" class="st0" points="258.9,636.5 256.9,684.5 346.9,692.8 339,636.5 		"/>
		<rect id="x14" x="393.9" y="362.5" class="st0" width="58" height="77.5"/>
		<rect id="x13" x="455.2" y="362.5" class="st0" width="47.3" height="77.5"/>
		<rect id="x12" x="505.7" y="362.5" class="st0" width="47.3" height="77.5"/>
		<rect id="x11" x="722.4" y="362.5" class="st0" width="55" height="77.5"/>
		<rect id="x10" x="780.9" y="362.5" class="st0" width="33.5" height="77.5"/>
		<rect id="x9" x="677.9" y="362.5" class="st0" width="41.2" height="23.2"/>
		<rect id="x8" x="677.9" y="389.6" class="st0" width="41.2" height="23.2"/>
		<rect id="x7" x="677.9" y="416.8" class="st0" width="41.2" height="23.2"/>
		<rect id="x6" x="606.3" y="397" class="st0" width="43.6" height="43"/>
		<polygon id="x5" class="st0" points="817.9,362.5 893.4,362.5 898.6,374.9 817.9,412 		"/>
		<polygon id="x4" class="st0" points="831.9,436.5 877.4,544.2 957.9,511.5 900.4,378.5 817.9,416.5 817.9,440 		"/>
		<polygon id="x3" class="st0" points="402.4,193.3 402.4,338.5 649.9,338.5 649.9,190.5 402.4,190.5 		"/>
		<polygon id="x2" class="st0" points="675.4,193.3 675.4,338.5 883.9,338.5 883.9,190.5 675.4,190.5 		"/>
		<polygon id="x1" class="st0" points="934.4,193.3 934.4,338.5 1096.8,338.5 1096.8,190.5 934.4,190.5 		"/>
	</g>
	<path id="waves" class="st1" d="M900.8,851.3c-11.1,11.1-31.8-0.7-32-0.8l-3.3-1.9l-2.7,2.7c-13,13-30.4,0.1-31.1-0.4l-3.3-2.5
		l-3.1,2.7c-15.7,13.8-29.9,1.6-31.6,0.1l0,0l0,0c0,0,0,0,0,0l-0.2,0.2l-0.1-0.1c-11.1,11.1-31.8-0.7-32-0.8l-3.3-1.9l-2.7,2.7
		c-13,13-30.4,0.1-31.1-0.4l-3.3-2.5l-3.1,2.7c-15.7,13.8-29.9,1.6-31.6,0.1l0,0l0,0c0,0,0,0,0,0l-0.3,0.3l-0.2-0.2
		c-11.1,11.1-31.7-0.7-31.9-0.8l-3.3-1.9l-2.7,2.7c-13,13-30.4,0.1-31.1-0.4l-3.3-2.5l-3.1,2.7c-15.7,13.8-30,1.5-31.6,0.1l-1.5,1.6
		c-11.4,8.5-30.1-2.1-30.3-2.2l-3.3-1.9l-2.7,2.7c-13,13-30.4,0.1-31.1-0.4l-3.3-2.5l-3.1,2.7c-15.7,13.8-29.9,1.6-31.6,0.1l0,0l0,0
		c0,0,0,0,0,0l-2.9,3.2l-3.9,4.2c4.5,4.2,13,9,22.9,9c6,0,12.5-1.8,19-6.5c9.1,5.5,25,10.3,38.2-0.2c2.7,1.3,7,3,11.9,4.1
		c8.4,1.9,15.8,1.3,21.9-1.6c4.4,2.3,9.9,4.1,15.9,4.1c6,0,12.5-1.8,19-6.5c9.1,5.5,25,10.3,38.2-0.2c2.7,1.3,7,3,11.9,4.1
		c8.5,1.9,15.9,1.3,22.1-1.7c4.5,2.5,10.1,4.4,16.4,4.4c6,0,12.5-1.8,19-6.5c9.1,5.5,25,10.3,38.2-0.2c2.7,1.3,7,3,11.9,4.1
		c8.4,1.9,15.9,1.3,22-1.7c4.4,2.4,10,4.3,16.2,4.3c6,0,12.5-1.8,19-6.5c9.1,5.5,25,10.3,38.2-0.2c2.7,1.3,7,3,11.9,4.1
		c11.9,2.7,21.9,0.4,28.9-6.6L900.8,851.3z"/>
	<path id="border" class="st2" d="M78.4,52v738.7h163.3c0,0,210.7-7.3,386.7-82.7l572.7-243.3V52H78.4z"/>
</g>
<g id="landmarks-desks">
	<polygon id="d21" class="st3" points="964.9,362.5 1020.4,484.5 1096.7,471.5 1096.7,362.5 	"/>
	<path id="d20" class="st3" d="M527.1,637.5h20.5c0,0,1,20,22,21.8c0,0,17.6,0.6,22.2-21.8h20.2c0,0-0.5,14.2,11.2,18.5l-10,18
		c0,0-8.8-7.5-23.2,0c0,0-10,6-10.2,18.7h-20.5c0,0,0.5-23.2-22-22.8s-21.2,22.8-21.2,22.8h-20.8c0,0-1-14-10.8-18.7l9.5-18
		c0,0,11.2,8.2,22.5,0.5C516.6,656.5,528.1,649.2,527.1,637.5z"/>
	<path id="d12" class="st3" d="M416.2,482.8H396c0,0,0.2,15.2-11.5,19.2l10.2,17.7c0,0,11.2-8.8,22.8-1.2c0,0,12.5,6.8,10.5,24.8
		c0,0-1,10.2-10.8,14.2l11,17.8c0,0,11.2-9.9,21,0l10.5-17.8c0,0-10.2-3.8-10.8-14.8c0,0-1.8-16.2,10.8-23.8c0,0,11-7,21.5-0.2
		l10.8-17c0,0-11.2-4.2-11.2-19h-20.2c0,0,1.8,13.2-11,19c0,0-12.5,6.2-22.2,0C427.2,501.8,417,496.3,416.2,482.8z"/>
	<path id="d13" class="st3" d="M551.2,482.8h-20.2c0,0,0.2,15.2-11.5,19.2l10.2,17.7c0,0,11.2-8.8,22.8-1.2c0,0,12.5,6.8,10.5,24.8
		c0,0-1,10.2-10.8,14.2l11,17.8c0,0,11.2-9.9,21,0l10.5-17.8c0,0-10.2-3.8-10.8-14.8c0,0-1.8-16.2,10.8-23.8c0,0,11-7,21.5-0.2
		l10.8-17c0,0-11.2-4.2-11.2-19h-20.2c0,0,1.8,13.2-11,19c0,0-12.5,6.2-22.2,0C562.2,501.8,551.9,496.3,551.2,482.8z"/>
	<path id="d14" class="st3" d="M686.1,482.8h-20.2c0,0,0.2,15.2-11.5,19.2l10.2,17.7c0,0,11.2-8.8,22.8-1.2c0,0,12.5,6.8,10.5,24.8
		c0,0-1,10.2-10.8,14.2l11,17.8c0,0,11.2-9.9,21,0l10.5-17.8c0,0-10.2-3.8-10.8-14.8c0,0-1.8-16.2,10.8-23.8c0,0,11-7,21.5-0.2
		l10.8-17c0,0-11.2-4.2-11.2-19h-20.2c0,0,1.8,13.2-11,19c0,0-12.5,6.2-22.2,0C697.1,501.8,686.8,496.3,686.1,482.8z"/>
	<path id="d16" class="st3" d="M527.7,624.1h20.2c0,0-0.2-15.2,11.5-19.2l-10.2-17.8c0,0-11.2,8.8-22.8,1.2c0,0-12.5-6.8-10.5-24.8
		c0,0,1-10.2,10.8-14.2l-11-17.8c0,0-11.2,9.9-21,0l-10.5,17.8c0,0,10.2,3.8,10.8,14.8c0,0,1.8,16.2-10.8,23.8c0,0-11,7-21.5,0.2
		l-10.8,17c0,0,11.2,4.2,11.2,19h20.2c0,0-1.8-13.2,11-19c0,0,12.5-6.2,22.3,0C516.7,605.1,526.9,610.6,527.7,624.1z"/>
	<path id="d17" class="st3" d="M662.7,624.1H683c0,0-0.2-15.2,11.5-19.2l-10.2-17.8c0,0-11.2,8.8-22.8,1.2c0,0-12.5-6.8-10.5-24.8
		c0,0,1-10.2,10.8-14.2l-11-17.8c0,0-11.2,9.9-21,0l-10.5,17.8c0,0,10.2,3.8,10.8,14.8c0,0,1.8,16.2-10.8,23.8c0,0-11,7-21.5,0.2
		l-10.8,17c0,0,11.2,4.2,11.2,19h20.2c0,0-1.8-13.2,11-19c0,0,12.5-6.2,22.2,0C651.7,605.1,662,610.6,662.7,624.1z"/>
	<path id="d18" class="st3" d="M812.7,590.4H833c0,0-0.2-15.2,11.5-19.2l-10.2-17.8c0,0-11.2,8.8-22.8,1.2c0,0-12.5-6.8-10.5-24.8
		c0,0,1-10.2,10.8-14.2l-11-17.8c0,0-11.2,9.9-21,0l-10.5,17.8c0,0,10.2,3.8,10.8,14.8c0,0,1.8,16.2-10.8,23.8c0,0-11,7-21.5,0.2
		l-10.8,17c0,0,11.2,4.2,11.2,19h20.2c0,0-1.8-13.2,11-19c0,0,12.5-6.2,22.2,0C801.7,571.4,812,576.9,812.7,590.4z"/>
	<path id="d5" class="st3" d="M812.4,72.5h-20.2c0,0,0.2,15.2-11.5,19.2l10.2,17.8c0,0,11.2-8.8,22.8-1.2c0,0,12.5,6.8,10.5,24.8
		c0,0-1,10.2-10.8,14.2l11,17.8c0,0,11.2-9.9,21,0l10.5-17.8c0,0-10.2-3.8-10.8-14.8c0,0-1.8-16.2,10.8-23.8c0,0,11-7,21.5-0.2
		l10.8-17c0,0-11.2-4.2-11.2-19h-20.2c0,0,1.8,13.2-11,19c0,0-12.5,6.2-22.2,0C823.4,91.5,813.1,86,812.4,72.5z"/>
	<path id="d7" class="st3" d="M996.6,72.5h-20.2c0,0,0.2,15.2-11.5,19.2l10.2,17.8c0,0,11.2-8.8,22.8-1.2c0,0,12.5,6.8,10.5,24.8
		c0,0-1,10.2-10.8,14.2l11,17.8c0,0,11.2-9.9,21,0l10.5-17.8c0,0-10.2-3.8-10.8-14.8c0,0-1.8-16.2,10.8-23.8c0,0,11-7,21.5-0.2
		l10.8-17c0,0-11.2-4.2-11.2-19h-20.2c0,0,1.8,13.2-11,19c0,0-12.5,6.2-22.2,0C1007.6,91.5,997.4,86,996.6,72.5z"/>
	<path id="d6" class="st3" d="M949.1,167.5h20.2c0,0-0.2-15.2,11.5-19.2l-10.2-17.8c0,0-11.2,8.8-22.8,1.2c0,0-12.5-6.8-10.5-24.8
		c0,0,1-10.2,10.8-14.2l-11-17.8c0,0-11.2,9.9-21,0l-10.5,17.8c0,0,10.2,3.8,10.8,14.8c0,0,1.8,16.2-10.8,23.8c0,0-11,7-21.5,0.2
		l-10.8,17c0,0,11.2,4.2,11.2,19h20.2c0,0-1.8-13.2,11-19c0,0,12.5-6.2,22.2,0C938.1,148.5,948.4,154,949.1,167.5z"/>
	<path id="d2" class="st3" d="M377.9,72.5h-20.2c0,0,0.2,15.2-11.5,19.2l10.2,17.8c0,0,11.2-8.8,22.8-1.2c0,0,12.5,6.8,10.5,24.8
		c0,0-1,10.2-10.8,14.2l11,17.8c0,0,11.2-9.9,21,0l10.5-17.8c0,0-10.2-3.8-10.8-14.8c0,0-1.8-16.2,10.8-23.8c0,0,11-7,21.5-0.2
		l10.8-17c0,0-11.2-4.2-11.2-19h-20.2c0,0,1.8,13.2-11,19c0,0-12.5,6.2-22.2,0C388.9,91.5,378.6,86,377.9,72.5z"/>
	<path id="d4" class="st3" d="M562.1,72.5h-20.2c0,0,0.2,15.2-11.5,19.2l10.2,17.8c0,0,11.2-8.8,22.8-1.2c0,0,12.5,6.8,10.5,24.8
		c0,0-1,10.2-10.8,14.2l11,17.8c0,0,11.2-9.9,21,0l10.5-17.8c0,0-10.2-3.8-10.8-14.8c0,0-1.8-16.2,10.8-23.8c0,0,11-7,21.5-0.2
		l10.8-17c0,0-11.2-4.2-11.2-19h-20.2c0,0,1.8,13.2-11,19c0,0-12.5,6.2-22.2,0C573.1,91.5,562.9,86,562.1,72.5z"/>
	<path id="d3" class="st3" d="M514.6,167.5h20.2c0,0-0.2-15.2,11.5-19.2l-10.2-17.8c0,0-11.2,8.8-22.8,1.2c0,0-12.5-6.8-10.5-24.8
		c0,0,1-10.2,10.8-14.2l-11-17.8c0,0-11.2,9.9-21,0l-10.5,17.8c0,0,10.2,3.8,10.8,14.8c0,0,1.8,16.2-10.8,23.8c0,0-11,7-21.5,0.2
		l-10.8,17c0,0,11.2,4.2,11.2,19h20.2c0,0-1.8-13.2,11-19c0,0,12.5-6.2,22.2,0C503.6,148.5,513.9,154,514.6,167.5z"/>
	<path id="d15" class="st3" d="M382.9,530.8c0,0-10.2,8.5-22.2,0l-10,17.8c0,0,26,17,0,38.5l10,17.8c0,0,29.5-13,33,19h20.8
		c0,0-0.2-15.2,11.2-19.2L415.4,588c0,0-20,7.7-30.9-9.2c0,0-9.4-17.3,8.4-30.1L382.9,530.8z"/>
	<path id="d19" class="st3" d="M450.5,711.6c0,0,4.6-12.5,19.3-11.1l-0.2-20.4c0,0-31-1.7-19.2-33.3l-17.5-10.4c0,0-19.1,26-38.1,0
		l-18,10.4c0,0,7.8,13.1-0.1,22.3l17.1,9.2c0,0,13.5-16.6,31.3-7.5c0,0,16.8,10.3,7.8,30.2L450.5,711.6z"/>
	<path id="d11" class="st3" d="M113.7,455.4c0,0,8.3,10.4-0.4,22.2l17.5,10.4c0,0,17.5-25.6,38.5,0.8l17.9-9.6
		c0,0-12.4-29.8,19.7-32.6l0.4-20.8c0,0-15.2-0.1-19-11.6l-16.7,9.9c0,0,7.3,20.1-9.8,30.7c0,0-17.5,9-29.9-9L113.7,455.4z"/>
	<path id="d10" class="st3" d="M113.8,394.8V415c0,0,15.2-0.2,19.2,11.5l17.8-10.2c0,0-8.8-11.2-1.2-22.8c0,0,6.8-12.5,24.8-10.5
		c0,0,10.2,1,14.2,10.8l17.8-11c0,0-9.9-11.2,0-21l-17.8-10.5c0,0-3.8,10.2-14.8,10.8c0,0-16.2,1.8-23.8-10.8c0,0-7-11-0.2-21.5
		l-17-10.8c0,0-4.2,11.2-19,11.2v20.2c0,0,13.2-1.8,19,11c0,0,6.2,12.5,0,22.2C132.8,383.8,127.3,394,113.8,394.8z"/>
	<path id="d9" class="st3" d="M206.3,259.4v-20.2c0,0-15.2,0.2-19.2-11.5l-17.8,10.2c0,0,8.8,11.2,1.2,22.8c0,0-6.8,12.5-24.8,10.5
		c0,0-10.2-1-14.2-10.8l-17.8,11c0,0,9.9,11.2,0,21l17.8,10.5c0,0,3.8-10.2,14.8-10.8c0,0,16.2-1.8,23.8,10.8c0,0,7,11,0.2,21.5
		l17,10.8c0,0,4.2-11.2,19-11.2v-20.2c0,0-13.2,1.8-19-11c0,0-6.2-12.5,0-22.2C187.3,270.4,192.8,260.1,206.3,259.4z"/>
	<path id="d8" class="st3" d="M113.8,215.2v20.2c0,0,15.2-0.2,19.2,11.5l17.8-10.2c0,0-8.8-11.2-1.2-22.8c0,0,6.8-12.5,24.8-10.5
		c0,0,10.2,1,14.2,10.8l17.8-11c0,0-9.9-11.2,0-21l-17.8-10.5c0,0-3.8,10.2-14.8,10.8c0,0-16.2,1.8-23.8-10.8c0,0-7-11-0.2-21.5
		l-17-10.8c0,0-4.2,11.2-19,11.2V171c0,0,13.2-1.8,19,11c0,0,6.2,12.5,0,22.2C132.8,204.2,127.3,214.5,113.8,215.2z"/>
	<path id="d1" class="st3" d="M189.7,152.8c0,0,3.9-12.7,18.6-12.3l-1.4-20.3c0,0-31.1,0.2-21.2-32.1l-18.1-9.3
		c0,0-17.4,27.1-38,2.3l-17.3,11.4c0,0,8.6,12.6,1.2,22.3l17.7,8.1c0,0,12.5-17.4,30.8-9.4c0,0,17.4,9.3,9.6,29.7L189.7,152.8z"/>
</g>
<g id="landmarks-offices">
	<rect id="o1" x="221.7" y="90.3" class="st3" width="53.3" height="76.2"/>
	<rect id="o2" x="279.4" y="90.3" class="st3" width="53.3" height="76.2"/>
	<rect id="o3_1_" x="710.8" y="90.3" class="st3" width="53.3" height="76.2"/>
	<polygon id="o4" points="649.9,362.5 556.4,362.5 556.4,440 603.1,440 603.1,393.6 649.9,393.6 	"/>
	<rect id="o5" x="258.9" y="508" class="st3" width="70" height="63.5"/>
	<rect id="o6_1_" x="78.4" y="567.8" class="st3" width="79.5" height="70.2"/>
	<rect id="o7" x="78.4" y="642.5" class="st3" width="79.5" height="54"/>
	<polygon id="o8" class="st3" points="157.9,719.5 157.9,700.5 78.4,700.5 78.4,790.7 185.9,790.7 185.9,719.5 	"/>
	<rect id="o9" x="189.9" y="719.5" class="st3" width="56.1" height="71.2"/>
	<path id="o10" class="st3" d="M249.9,719.5v70.8c0,0,44.5-1.9,82.5-7.8l-9-63H249.9z"/>
</g>
</svg>
