<?xml version="1.0" encoding="utf-8"?>
<!-- Generator: Adobe Illustrator 21.1.0, SVG Export Plug-In . SVG Version: 6.00 Build 0)  -->
<svg version="1.1" id="Floor_B" xmlns="http://www.w3.org/2000/svg" xmlns:xlink="http://www.w3.org/1999/xlink" x="0px" y="0px"
	 viewBox="0 0 1260.4 925" style="enable-background:new 0 0 1260.4 925;" xml:space="preserve">
<style type="text/css">
	.st00{display:none;}
	.st01{display:inline;fill:#FFFFFF;}
	.st02{fill:none;stroke:#231F20;stroke-width:10;stroke-miterlimit:10;}
	.st03{fill:#7F7F7F;}
	.st04{display:none;fill:none;}
	.st05{fill:#231F20;}
	.st06{fill:#050000;}
</style>
<g id="nopointer-stuff-2">
	<g id="Layer_8" class="st00">
		<rect class="st01" width="1260.4" height="925"/>
	</g>
	<g id="Layer_7">
	</g>
	<path class="st02" d="M77,42.3v746.8h163.8c0,0,211.3-7.4,387.9-83.6l574.4-246V42.3H77z"/>
	<rect x="326.4" y="264" class="st03" width="48" height="69"/>
	<polygon class="st03" points="1100.4,181 1069.4,181 1069.4,158.4 889.4,158.4 889.4,181 403.4,181 403.4,317 374.4,317 374.4,333 
		393,333 393,357 1048.4,357 1048.4,332 1100.4,332 	"/>
	<rect x="706.4" y="97" class="st03" width="177" height="79"/>
	<rect x="239.4" y="55.5" class="st03" width="135" height="107.9"/>
	<rect x="326.4" y="184" class="st03" width="48" height="73.7"/>
	<rect x="913.4" y="55" class="st03" width="48" height="41"/>
	<rect x="913.4" y="101" class="st03" width="48" height="52.4"/>
	<rect x="239.4" y="264" class="st03" width="59" height="69"/>
	<rect x="239.4" y="184" class="st03" width="59" height="73.7"/>
	<rect x="351.3" y="29.8" class="st04" width="372" height="154.6"/>
	<rect x="72" y="38.3" class="st04" width="161.8" height="223.6"/>
	<g>
		<path class="st05" d="M594.9,867.5c-10,0-18.5-4.9-22.9-9l6.8-7.3c1.6,1.5,15.9,13.7,31.6-0.1l3.1-2.7l3.3,2.5
			c0.7,0.5,18.1,13.4,31.1,0.4l2.7-2.7l3.3,1.9c0.2,0.1,20.9,11.9,31.9,0.8l7.1,7.1c-7,7-17,9.3-28.9,6.6c-4.9-1.1-9.1-2.8-11.9-4.1
			c-13.2,10.5-29.1,5.7-38.2,0.2C607.4,865.7,600.8,867.5,594.9,867.5z"/>
		<path class="st05" d="M487.9,867.5c-10,0-18.5-4.9-22.9-9l6.8-7.3l-3.4,3.7l3.4-3.7c1.6,1.5,15.9,13.7,31.6-0.1l3.1-2.7l3.3,2.5
			c0.7,0.5,18.1,13.4,31.1,0.4l2.7-2.7l3.3,1.9c0.2,0.1,20.9,11.9,31.9,0.8l7.1,7.1c-7,7-17,9.3-28.9,6.6c-4.9-1.1-9.1-2.8-11.9-4.1
			c-13.2,10.5-29.1,5.7-38.2,0.2C500.5,865.8,493.9,867.5,487.9,867.5z"/>
		<path class="st05" d="M809.8,867.5c-10,0-18.5-4.9-22.9-9l6.8-7.3l-3.4,3.7l3.4-3.7c1.6,1.5,15.9,13.7,31.6-0.1l3.1-2.7l3.3,2.5
			c0.7,0.5,18.1,13.4,31.1,0.4l2.7-2.7l3.3,1.9c0.2,0.1,20.9,11.9,32,0.8l7.1,7.1c-7,7-17,9.3-28.9,6.6c-4.9-1.1-9.1-2.8-11.9-4.1
			c-13.2,10.5-29.1,5.7-38.2,0.2C822.3,865.8,815.8,867.5,809.8,867.5z"/>
		<path class="st05" d="M702.4,867.5c-10,0-18.5-4.9-22.9-9l6.8-7.3l-3.4,3.7l3.4-3.7c1.6,1.5,15.9,13.7,31.6-0.1l3.1-2.7l3.3,2.5
			c0.7,0.5,18.1,13.4,31.1,0.4l2.7-2.7l3.3,1.9c0.2,0.1,20.9,11.9,32,0.8l7.1,7.1c-7,7-17,9.3-28.9,6.6c-4.9-1.1-9.1-2.8-11.9-4.1
			c-13.2,10.5-29.1,5.7-38.2,0.2C715,865.8,708.4,867.5,702.4,867.5z"/>
	</g>
	<rect x="81.5" y="46.5" class="st03" width="64.4" height="73.5"/>
	<rect x="81.5" y="196.3" class="st03" width="64.4" height="50.8"/>
</g>
<g id="landmarks-offices-2">
	<rect id="o12" x="81.5" y="125.3" class="st06" width="64.4" height="65.5"/>
</g>
<g id="landmarks-desks-2">
	<path id="d27" class="st05" d="M201.4,243.3c0,0-0.7-14.7,11-20.3l-9.7-18.6c0,0-12,9.7-23,0l-10.3,18c0,0,11.7,8,11.7,21H201.4z"/>
	<path id="d26" class="st05" d="M179.4,107.1c0,0,11,5.1,22.3,0l10.7,17.2c0,0-24.3,17.8,0,39.1l-10.3,17.2c0,0-9-7-22.7,0l-10-17.2
		c0,0,25.7-19.5,0-38.8L179.4,107.1z"/>
	<path id="d25" class="st06" d="M650.7,158.4H671c0,0-0.2-15.2,11.5-19.2l-10.2-17.8c0,0-11.2,8.8-22.8,1.2c0,0-12.5-6.8-10.5-24.8
		c0,0,1-10.2,10.8-14.2l-11-17.8c0,0-11.2,9.9-21,0l-10.5,17.8c0,0,10.2,3.8,10.8,14.8c0,0,1.8,16.2-10.8,23.8c0,0-11,7-21.5,0.2
		l-10.8,17c0,0,11.2,4.2,11.2,19h20.2c0,0-1.8-13.2,11-19c0,0,12.5-6.2,22.2,0C639.7,139.4,650,144.9,650.7,158.4z"/>
	<path id="d24" class="st06" d="M518.1,137.2l10.6,17.2c0,0,12.8-8.2,22.4-0.3l9.7-18.1c0,0-13.4-5-13-18.7c0,0-0.8-14.2,15.5-21.9
		c0,0,9.2-4.5,17.8,1.7l9.3-18.7c0,0-14.3-4.3-11-17.9l-20.6,0.4c0,0,2.2,10.7-6.9,16.9c0,0-12.9,10-25.9,3.3
		c0,0-11.7-5.7-11.5-18.2l-20.1-0.2c0,0,2.3,11.8-10.2,19.6l10.6,17.2c0,0,10.4-8.4,22-0.6c0,0,11.9,7.3,11.7,18.9
		C528.5,117.8,529.2,129.5,518.1,137.2z"/>
	<path id="d23" class="st06" d="M468.7,158.4H489c0,0-0.2-15.2,11.5-19.2l-10.2-17.8c0,0-11.2,8.8-22.8,1.2c0,0-12.5-6.8-10.5-24.8
		c0,0,1-10.2,10.8-14.2l-11-17.8c0,0-11.2,9.9-21,0l-10.5,17.8c0,0,10.2,3.8,10.8,14.8c0,0,1.8,16.2-10.8,23.8c0,0-11,7-21.5,0.2
		l-10.8,17c0,0,11.2,4.2,11.2,19h20.2c0,0-1.8-13.2,11-19c0,0,12.5-6.2,22.2,0C457.7,139.4,468,144.9,468.7,158.4z"/>
	<path id="d22_1_" class="st05" d="M180.4,47c0,0,0.7,14.7-11,20.3l9.7,18.7c0,0,12-9.7,23,0l10.3-18c0,0-11.7-8-11.7-21H180.4z"/>
</g>
</svg>
